<?xml version="1.0" encoding="utf-8"?>
<!-- Generator: Adobe Illustrator 27.0.0, SVG Export Plug-In . SVG Version: 6.00 Build 0)  -->
<svg version="1.1" id="Layer_1" xmlns="http://www.w3.org/2000/svg" xmlns:xlink="http://www.w3.org/1999/xlink" x="0px" y="0px"
	 viewBox="0 0 280 75" style="enable-background:new 0 0 280 75;" xml:space="preserve">
<style type="text/css">
	.st0{fill:#1A1A1A;}
	.st1{fill:#0057FF;}
</style>
<g>
	<g>
		<path class="st0" d="M155.5,25.9l-8.2,15.5v7.3h-5.9v-7.1L133,25.9h5.9l5.4,9.8l5.3-9.8H155.5L155.5,25.9z"/>
		<path class="st0" d="M199,48.7l-3.3-6.3h-4.4v6.3h-5.9V25.9h10.2c3,0,5.3,0.7,7,2.1c1.6,1.4,2.5,3.4,2.5,5.9c0,1.7-0.3,3.2-1,4.4
			c-0.7,1.2-1.7,2.2-3,2.9l4.7,7.4H199L199,48.7z M191.3,37.6h4.3c1.2,0,2.1-0.3,2.8-0.9s1-1.5,1-2.6s-0.3-2-1-2.5
			c-0.7-0.6-1.6-0.9-2.8-0.9h-4.3V37.6z"/>
		<path class="st0" d="M209.1,25.9h19.5v4.9h-6.8v17.8h-5.9V30.8h-6.8V25.9z"/>
		<path class="st0" d="M240.1,42.7c0.8,0.9,1.9,1.3,3.2,1.3c1.3,0,2.3-0.4,3.1-1.3c0.8-0.9,1.2-2,1.2-3.5V25.9h5.9v13.4
			c0,2-0.4,3.7-1.2,5.2c-0.8,1.5-2,2.6-3.6,3.4c-1.6,0.8-3.4,1.2-5.4,1.2c-2.1,0-3.9-0.4-5.5-1.2c-1.6-0.8-2.8-1.9-3.6-3.4
			s-1.3-3.2-1.3-5.2V25.9h5.9v13.4C238.9,40.7,239.3,41.9,240.1,42.7L240.1,42.7z"/>
		<path class="st0" d="M171.5,25.9h-6.1l-9.8,22.7h6.1l1.6-4l1.8-4.5l3.2-8.1l3.1,8.1l1.8,4.5l1.5,4h6.3L171.5,25.9z"/>
	</g>
	<g>
		<path class="st1" d="M90.5,36.8v-6.3c0.1-0.4,0.1-0.7-0.1-1.1c-0.2-0.6-0.8-1.1-1.5-1.2l-18.7-3.4l-2.1,2.5l18.8,3.4L66.7,54.5
			c-0.1,0-0.2,0.1-0.2,0.1l-36.4-6.4l20.2-23.7c0,0,0.2-0.1,0.2-0.1l8.5,1.5l2.2-2.5L51,21.6c-1-0.2-2.2,0.3-2.8,1L27,47.5
			c-0.4,0.5-0.6,1.1-0.5,1.6h0v6c0,1.2,0.9,2.3,2.1,2.5l37.9,6.6c0.2,0,0.3,0,0.4,0c0.9,0,1.8-0.4,2.4-1.1l20.2-23.9
			C90.1,38.7,90.5,37.6,90.5,36.8L90.5,36.8z"/>
		<path class="st1" d="M116.9,18.9v-0.1h0c0-0.1,0-0.1,0-0.2c-0.2-0.6-0.8-1.1-1.6-1.2l-37.9-6.6c-1-0.2-2.2,0.3-2.8,1L53.4,36.7
			c-0.4,0.5-0.6,1.1-0.5,1.7v5.8c0,1.2,0.9,2.3,2.1,2.5L68.3,49l0.1,0l7.1-8.4h0l0,0l-19-3.3l20.2-23.7c0.1,0,0.2-0.1,0.2-0.1
			l36.4,6.4L93.1,43.6c0,0-0.2,0.1-0.2,0.1l-3.2-0.5L89.1,43l-7.2,8.4l11,1.8c0.2,0,0.3,0,0.5,0c0.9,0,1.8-0.4,2.4-1.1L116,28.3
			c0.5-0.6,0.9-1.7,0.9-2.5v-6.2C117,19.3,117,19.1,116.9,18.9L116.9,18.9z"/>
	</g>
</g>
</svg>
