<?xml version="1.0" encoding="utf-8"?>
<!-- Generator: Adobe Illustrator 26.5.0, SVG Export Plug-In . SVG Version: 6.00 Build 0)  -->
<svg version="1.1" id="Layer_1" xmlns="http://www.w3.org/2000/svg" xmlns:xlink="http://www.w3.org/1999/xlink" x="0px" y="0px"
	 viewBox="0 0 56 56" style="enable-background:new 0 0 56 56;" xml:space="preserve">
<style type="text/css">
	.st0{fill:#0057FF;}
</style>
<g>
	<path class="st0" d="M34.9,27.7v-2.3c0-0.1,0-0.3,0-0.4c-0.1-0.2-0.3-0.4-0.6-0.5l-7-1.3l-0.8,0.9l7.1,1.3l-7.7,8.9l-0.1,0.1
		L12.3,32l7.5-8.9l0.1-0.1l3.1,0.6l0.8-1L20,22c-0.3-0.1-0.8,0.1-1,0.3l-7.8,9.4c-0.1,0.2-0.2,0.4-0.2,0.6l0,0v2.2
		c0,0.4,0.3,0.8,0.8,0.9L25.8,38c0.1,0,0.1,0,0.1,0c0.3,0,0.7-0.1,0.9-0.4l7.5-8.9C34.6,28.4,34.9,28,34.9,27.7z"/>
	<path class="st0" d="M44.7,21L44.7,21L44.7,21C44.7,20.9,44.7,20.9,44.7,21c-0.1-0.3-0.3-0.5-0.6-0.6L30,18c-0.3-0.1-0.8,0.1-1,0.3
		l-8,9.3c-0.1,0.2-0.2,0.4-0.2,0.6v2.2c0,0.4,0.3,0.8,0.8,0.9l5,0.9l0,0l0,0l2.7-3.1l0,0l0,0L22,27.9l7.5-8.9l0.1-0.1l13.6,2.4
		l-7.4,8.9l-0.1,0.1l-1.3-0.2l0,0L34.3,30l-2.7,3.1l4.1,0.7c0.1,0,0.1,0,0.1,0c0.3,0,0.7-0.1,0.9-0.4l7.6-8.9c0.2-0.2,0.3-0.6,0.3-1
		v-2.3C44.7,21.1,44.7,21.1,44.7,21z"/>
</g>
</svg>
